<svg width="965.71"
height="1028.57"
viewBox="-144.855 -153.785 965.71 1028.57" xmlns="http://www.w3.org/2000/svg" xml:space="preserve" enable-background="new 0 0 864 860" version="1.1">
 <g>
  <title>seoptimally Logo</title>
  <path stroke="null" id="svg_1" d="m665,200.21264c0,172.32176 0,344.64352 0,516.99798c-220.44471,0 -440.8894,0 -661.40604,0c0,-237.79131 0,-475.61529 0,-713.56234c220.42068,0 440.91334,0 661.40604,0c0,29.82791 0,59.70072 -0.35869,89.95615c-7.98627,0.28096 -15.77633,-0.49219 -22.71415,3.90168c-5.08935,3.22317 -9.99793,6.82426 -14.77788,10.57055c-11.47871,8.99652 -15.42293,21.9166 -15.72442,36.60789c-0.02523,1.23055 -0.00033,2.51014 0.27402,3.69255c2.2997,9.91074 5.74966,19.14226 11.25797,27.66929c10.32335,15.98092 24.14414,24.05077 42.04316,24.16624m-102.10627,39.29648c-2.11792,-6.04518 -3.8157,-12.31711 -6.46152,-18.07738c-3.21506,-6.99971 -7.22946,-13.56805 -10.87268,-21.06486c0.26775,-2.29324 0.28065,-4.66359 0.84784,-6.86624c2.3282,-9.04167 8.81271,-14.21118 15.70586,-18.69224c6.6975,-4.35382 13.88771,-4.88007 20.90459,-0.80404c6.57456,3.81906 6.64306,3.9811 12.64225,-1.16138c0.99265,-0.8509 1.90134,-1.82716 2.93899,-2.60395c1.76797,-1.32342 1.48171,-2.62387 0.16663,-4.0634c-7.75693,-8.49104 -17.39,-12.66072 -28.00476,-10.36954c-15.68764,3.38617 -28.08634,12.77934 -36.13663,28.21849c-0.44485,0.85315 -1.38265,1.40429 -2.5488,1.8485c-6.50792,-4.80727 -12.74636,-10.13145 -19.57858,-14.31669c-15.3239,-9.38709 -32.11831,-12.79965 -49.5885,-12.79869c-56.86375,0.00313 -113.72748,-0.001 -170.59123,0.01189c-1.65057,0.00038 -3.30111,0.16001 -5.34957,0.05789c-0.27728,-0.08929 -0.55455,-0.17859 -1.05763,-0.7563c-32.08156,-34.65396 -64.1601,-69.31116 -96.26035,-103.94474c-0.88715,-0.95717 -1.90267,-1.93641 -3.03453,-2.44082c-16.43943,-7.32629 -33.24531,-8.89977 -50.50291,-3.75519c-40.06525,11.94367 -65.75896,53.94592 -66.3573,95.16192c-1.30063,89.59288 -0.60803,179.22287 -0.3837,268.83665c0.06064,24.22571 8.25676,45.82425 22.43406,64.29313c20.63547,26.8821 47.61368,40.00978 79.81893,40.08661c57.41098,0.13703 114.82248,0.03972 172.23376,0.03166c1.39979,-0.0002 2.79962,-0.10409 4.5931,0.0079c0.13323,0.04999 0.26645,0.09995 0.61745,0.62623c10.72312,11.44406 21.48581,22.84497 32.16093,34.34136c21.35576,22.99886 42.65656,46.05759 64.01069,69.05817c1.14677,1.23513 2.43703,2.52664 3.89408,3.17886c29.33801,13.13208 62.90659,5.72641 85.55466,-18.4514c21.34837,-22.79036 31.36262,-50.74844 31.49836,-82.73285c0.37145,-87.51681 0.29505,-175.03582 1.11807,-262.44689c9.45182,2.16986 19.04265,2.48027 27.90662,-1.72969c15.08853,-7.16631 26.81421,-18.74228 34.52404,-34.72625c2.20021,-4.56143 2.68895,-8.64903 -0.86887,-13.41578c-6.04442,-8.09833 -11.22413,-16.96193 -16.65613,-25.58613c-1.62045,-2.57277 -3.12184,-3.19029 -5.61915,-1.24425c-7.52339,5.86275 -15.16513,11.5468 -22.74733,17.32122c-6.92451,5.27352 -6.9168,5.2854 -2.23091,12.62488c2.17436,3.40566 4.0136,3.6783 7.20856,1.12958c4.08234,-3.25659 8.27842,-6.3555 12.24688,-9.76651c2.81399,-2.41875 4.70289,-1.78685 6.43512,1.30836c1.91054,3.41394 3.73188,6.91791 5.94961,10.08884c1.87026,2.67419 1.63452,4.84869 0.03528,7.45527c-4.88065,7.95521 -11.08624,14.21022 -18.87919,18.78242c-7.71744,4.52793 -15.5026,5.30419 -23.61616,1.7073c-2.64923,-1.17451 -5.22444,-2.54498 -8.09992,-4.36189z" fill-opacity="0"/>
  <path id="svg_4" d="m293.89044,144.05981c0.36219,0.10761 0.72434,0.21521 1.45734,0.74494c16.08908,16.02312 31.82175,31.60959 47.5231,47.2276c67.93234,67.57156 135.85995,135.14786 203.75717,202.75476c1.75208,1.7446 3.41736,3.69727 4.64624,5.82797c14.54663,25.22244 20.08734,52.3244 15.41992,81.0773c-5.99878,36.95502 -25.02081,65.68933 -56.21283,86.47833c-7.43774,4.95716 -15.00299,7.39503 -24.18896,7.28644c-36.82385,-0.43561 -73.6565,-0.12872 -110.48587,-0.09643c-0.17401,-0.06024 -0.34802,-0.12043 -0.93863,-0.5578c-29.75241,-29.4549 -59.14417,-58.47644 -88.4119,-87.62256c-54.65081,-54.42368 -109.23144,-108.91779 -163.82713,-163.39679c-1.28921,-1.28644 -2.66545,-2.59107 -3.5737,-4.13812c-14.76469,-25.14923 -20.44557,-52.32935 -15.9523,-81.05619c5.59181,-35.75009 23.70071,-64.12794 53.27969,-85.13023c8.89382,-6.31497 18.12751,-10.33148 29.59038,-9.40529c11.41962,0.9227 22.97202,0.2224 34.46616,0.19809c24.48379,-0.05177 48.96756,-0.12662 73.45132,-0.19202z" fill="#5A5DB0"/>
  <path id="svg_5" d="m375.94879,575.6477c36.68713,-0.31927 73.51978,-0.62616 110.34363,-0.19055c9.18597,0.10859 16.75122,-2.32928 24.18896,-7.28644c31.19202,-20.789 50.21405,-49.52331 56.21283,-86.47833c4.66742,-28.7529 -0.87329,-55.85486 -15.41992,-81.0773c-1.22888,-2.1307 -2.89416,-4.08337 -4.64624,-5.82797c-67.89722,-67.6069 -135.82483,-135.1832 -203.75717,-202.75476c-15.70135,-15.61801 -31.43402,-31.20448 -47.26324,-47.11463c2.04495,-0.41206 4.20083,-0.60441 6.35675,-0.60487c74.2735,-0.01553 148.54696,-0.01056 222.82046,-0.01433c22.81897,-0.00116 44.75525,4.11084 64.77081,15.42188c8.92402,5.04304 17.07245,11.45845 26.01429,17.70021c6.00683,6.26919 11.57232,12.08919 17.13781,17.90916c4.79181,8.13942 10.03528,16.05399 14.23468,24.48834c3.45588,6.94089 5.67347,14.4983 8.59943,22.51807c1.65955,8.40097 3.15949,16.06635 4.65942,23.73175c-0.13183,105.45566 -0.03204,210.91236 -0.51721,316.3664c-0.17731,38.53985 -13.25757,72.22815 -41.14209,99.68957c-29.58215,29.13324 -73.42828,38.05676 -111.74859,22.23316c-1.90314,-0.78589 -3.58844,-2.34211 -5.08631,-3.83039c-27.89203,-27.71472 -55.71441,-55.49951 -83.60858,-83.21216c-13.94348,-13.85266 -28.00134,-27.59027 -42.14972,-41.66681z" fill="#3b82f6"/>
  <path id="svg_6" d="m293.74298,143.76556c-24.3363,0.35965 -48.82007,0.4345 -73.30386,0.48627c-11.49414,0.02431 -23.04654,0.72461 -34.46616,-0.19809c-11.46287,-0.92619 -20.69656,3.09032 -29.59038,9.40529c-29.57898,21.00229 -47.68788,49.38014 -53.27969,85.13023c-4.49327,28.72684 1.18761,55.90696 15.9523,81.05619c0.90825,1.54705 2.28449,2.85168 3.5737,4.13812c54.59569,54.479 109.17632,108.97311 163.82713,163.39679c29.26773,29.14612 58.65949,58.16766 88.15476,87.52167c-1.66885,0.34308 -3.49726,0.46826 -5.32562,0.4685c-74.98865,0.00971 -149.9776,0.12696 -224.96587,-0.03815c-42.0654,-0.09258 -77.30342,-15.91088 -104.25677,-48.30267c-18.5179,-22.25421 -29.22339,-48.27954 -29.3026,-77.47049c-0.29301,-107.9808 -1.19766,-215.98114 0.50118,-323.93676c0.78153,-49.66353 34.34178,-100.27447 86.67365,-114.66608c22.54129,-6.19901 44.49256,-4.30303 65.96518,4.52484c1.4784,0.60779 2.80484,1.78773 3.9636,2.94108c41.92825,41.73199 83.82815,83.49245 125.87945,125.54326z" fill="#9a3aed"/>
 </g>
</svg>